# xmcd
#
# Track frame offsets:
#	150
#	16208
#	32726
#	53933
#	70336
#	89253
#	104837
#	118058
#	133532
#	150799
#	168438
#	184551
#	200807
#	221663
#	237888
#	257071
#	276895
#	290212
#	309961
#	322583
#	336549
#
# Disc length: 4731 seconds
#
# Revision: 2
# Processed by: cddbd v1.5.1PL0 Copyright (c) Steve Scherf et al.
# Submitted via: EZCDDA 4.3.2
#
DISCID=36127915
DTITLE=SHANIA TWAIN - Come On Over 1998
DYEAR=1900
DGENRE=
TTITLE0=You're Still The One
TTITLE1=When
TTITLE2=From This Moment On
TTITLE3=Black Eyes, Blue Tears
TTITLE4=I Won't Leave You Lonely
TTITLE5=I'm Holdin' On To Love (To Save My Life)
TTITLE6=Come On Over
TTITLE7=You've Got A Way
TTITLE8=Whatever You Do! Don't!
TTITLE9=Man! I Feel Like a Woman!
TTITLE10=Love Gets Me Every Time
TTITLE11=Don't Be Stupid
TTITLE12=That Don't Impress Me Much
TTITLE13=Honey, I'm Home
TTITLE14=If You Wanna Touch Her, Ask!
TTITLE15=Rock This Country
TTITLE16=What Made You Say That
TTITLE17=Whose Bed Have Your Boots Been
TTITLE18=You Lay a Whole Lot of Love on
TTITLE19=Still under The Weather
TTITLE20=Any Man of Mine
EXTD=
EXTT0=
EXTT1=
EXTT2=
EXTT3=
EXTT4=
EXTT5=
EXTT6=
EXTT7=
EXTT8=
EXTT9=
EXTT10=
EXTT11=
EXTT12=
EXTT13=
EXTT14=
EXTT15=
EXTT16=
EXTT17=
EXTT18=
EXTT19=
EXTT20=
PLAYORDER=
